<svg width="66" height="70" viewBox="0 0 66 70" fill="none" xmlns="http://www.w3.org/2000/svg" xmlns:xlink="http://www.w3.org/1999/xlink">
<path d="M23.607,31.636L40.389,31.636L40.389,29.636L23.607,29.636L23.607,31.636ZM40.389,31.636C42.466,31.636 44.246,33.436 44.246,35.779L46.246,35.779C46.246,32.441 43.676,29.636 40.389,29.636L40.389,31.636ZM44.246,35.779L44.246,48.41L46.246,48.41L46.246,35.779L44.246,35.779ZM44.246,48.41C44.246,50.753 42.466,52.553 40.389,52.553L40.389,54.553C43.676,54.553 46.246,51.748 46.246,48.41L44.246,48.41ZM40.389,52.553L23.607,52.553L23.607,54.553L40.389,54.553L40.389,52.553ZM23.607,52.553C21.53,52.553 19.75,50.753 19.75,48.41L17.75,48.41C17.75,51.748 20.319,54.553 23.607,54.553L23.607,52.553ZM19.75,48.41L19.75,35.779L17.75,35.779L17.75,48.41L19.75,48.41ZM19.75,35.779C19.75,33.436 21.53,31.636 23.607,31.636L23.607,29.636C20.319,29.636 17.75,32.441 17.75,35.779L19.75,35.779Z" fill="#FFFFFF"/>
<path d="M24.909,30.638C24.909,31.19 25.356,31.638 25.909,31.638C26.461,31.638 26.909,31.19 26.909,30.638L24.909,30.638ZM37.1,30.638C37.1,31.19 37.548,31.638 38.1,31.638C38.652,31.638 39.1,31.19 39.1,30.638L37.1,30.638ZM26.909,30.638L26.909,27.694L24.909,27.694L24.909,30.638L26.909,30.638ZM26.909,27.694C26.909,25.351 28.689,23.551 30.766,23.551L30.766,21.551C27.478,21.551 24.909,24.356 24.909,27.694L26.909,27.694ZM30.766,23.551L33.243,23.551L33.243,21.551L30.766,21.551L30.766,23.551ZM33.243,23.551C35.32,23.551 37.1,25.351 37.1,27.694L39.1,27.694C39.1,24.356 36.531,21.551 33.243,21.551L33.243,23.551ZM37.1,27.694L37.1,30.638L39.1,30.638L39.1,27.694L37.1,27.694Z" fill="#FFFFFF"/>
<path d="M63.572,33.691L62.572,33.684L62.572,33.691L63.572,33.691ZM62.017,29.885L62.718,29.172L62.716,29.17L62.017,29.885ZM32,0.571L32.699,-0.144C32.31,-0.524 31.69,-0.524 31.302,-0.144L32,0.571ZM1.983,29.885L1.284,29.17L1.282,29.172L1.983,29.885ZM0.429,33.691L1.429,33.691L1.429,33.685L0.429,33.691ZM62.149,65.922L61.422,65.235L61.422,65.235L62.149,65.922ZM64.572,33.698C64.577,32.853 64.416,32.015 64.099,31.237L62.247,31.993C62.465,32.525 62.576,33.102 62.572,33.684L64.572,33.698ZM64.099,31.237C63.781,30.459 63.312,29.755 62.718,29.172L61.317,30.599C61.712,30.987 62.03,31.461 62.247,31.993L64.099,31.237ZM62.716,29.17L32.699,-0.144L31.302,1.287L61.319,30.601L62.716,29.17ZM31.302,-0.144L1.284,29.17L2.682,30.601L32.699,1.287L31.302,-0.144ZM1.282,29.172C0.689,29.755 0.22,30.459 -0.098,31.237L1.753,31.993C1.971,31.461 2.289,30.987 2.684,30.599L1.282,29.172ZM-0.098,31.237C-0.416,32.015 -0.577,32.853 -0.571,33.698L1.429,33.685C1.425,33.102 1.536,32.525 1.753,31.993L-0.098,31.237ZM-0.571,33.691L-0.571,62.285L1.429,62.285L1.429,33.691L-0.571,33.691ZM-0.571,62.285C-0.571,63.897 0.033,65.453 1.124,66.609L2.578,65.235C1.848,64.462 1.429,63.402 1.429,62.285L-0.571,62.285ZM1.124,66.609C2.218,67.766 3.713,68.428 5.286,68.428L5.286,66.428C4.282,66.428 3.307,66.006 2.578,65.235L1.124,66.609ZM5.286,68.428L58.715,68.428L58.715,66.428L5.286,66.428L5.286,68.428ZM58.715,68.428C60.287,68.428 61.783,67.766 62.876,66.609L61.422,65.235C60.694,66.006 59.718,66.428 58.715,66.428L58.715,68.428ZM62.876,66.609C63.968,65.453 64.572,63.897 64.572,62.285L62.572,62.285C62.572,63.402 62.152,64.462 61.422,65.235L62.876,66.609ZM64.572,62.285L64.572,33.691L62.572,33.691L62.572,62.285L64.572,62.285Z" fill="#FFFFFF"/>
</svg>
