<svg width="66" height="70" viewBox="0 0 66 70" fill="none" xmlns="http://www.w3.org/2000/svg" xmlns:xlink="http://www.w3.org/1999/xlink">
<path d="M23.607,31.637L40.388,31.637L40.388,29.637L23.607,29.637L23.607,31.637ZM40.388,31.637C42.465,31.637 44.245,33.437 44.245,35.78L46.245,35.78C46.245,32.442 43.676,29.637 40.388,29.637L40.388,31.637ZM44.245,35.78L44.245,48.41L46.245,48.41L46.245,35.78L44.245,35.78ZM44.245,48.41C44.245,50.753 42.465,52.553 40.388,52.553L40.388,54.553C43.676,54.553 46.245,51.748 46.245,48.41L44.245,48.41ZM40.388,52.553L23.607,52.553L23.607,54.553L40.388,54.553L40.388,52.553ZM23.607,52.553C21.529,52.553 19.75,50.753 19.75,48.41L17.75,48.41C17.75,51.748 20.319,54.553 23.607,54.553L23.607,52.553ZM19.75,48.41L19.75,35.78L17.75,35.78L17.75,48.41L19.75,48.41ZM19.75,35.78C19.75,33.437 21.529,31.637 23.607,31.637L23.607,29.637C20.319,29.637 17.75,32.442 17.75,35.78L19.75,35.78Z" fill="#FFFFFF"/>
<path d="M24.908,30.638C24.908,31.191 25.356,31.638 25.908,31.638C26.46,31.638 26.908,31.191 26.908,30.638L24.908,30.638ZM37.1,30.638C37.1,31.191 37.547,31.638 38.1,31.638C38.652,31.638 39.1,31.191 39.1,30.638L37.1,30.638ZM26.908,30.638L26.908,27.695L24.908,27.695L24.908,30.638L26.908,30.638ZM26.908,27.695C26.908,25.352 28.688,23.552 30.765,23.552L30.765,21.552C27.477,21.552 24.908,24.357 24.908,27.695L26.908,27.695ZM30.765,23.552L33.242,23.552L33.242,21.552L30.765,21.552L30.765,23.552ZM33.242,23.552C35.32,23.552 37.1,25.352 37.1,27.695L39.1,27.695C39.1,24.357 36.53,21.552 33.242,21.552L33.242,23.552ZM37.1,27.695L37.1,30.638L39.1,30.638L39.1,27.695L37.1,27.695Z" fill="#FFFFFF"/>
<path d="M63.571,33.692L62.571,33.685L62.571,33.692L63.571,33.692ZM62.017,29.886L62.718,29.172L62.716,29.17L62.017,29.886ZM32,0.572L32.699,-0.144C32.31,-0.523 31.69,-0.523 31.301,-0.144L32,0.572ZM1.983,29.886L1.284,29.17L1.282,29.172L1.983,29.886ZM0.429,33.692L1.429,33.692L1.429,33.685L0.429,33.692ZM62.149,65.922L61.422,65.236L61.422,65.236L62.149,65.922ZM64.571,33.698C64.577,32.854 64.416,32.016 64.098,31.237L62.247,31.994C62.464,32.526 62.575,33.102 62.571,33.685L64.571,33.698ZM64.098,31.237C63.78,30.459 63.311,29.755 62.718,29.172L61.316,30.6C61.712,30.987 62.029,31.462 62.247,31.994L64.098,31.237ZM62.716,29.17L32.699,-0.144L31.301,1.287L61.318,30.601L62.716,29.17ZM31.301,-0.144L1.284,29.17L2.682,30.601L32.699,1.287L31.301,-0.144ZM1.282,29.172C0.689,29.755 0.22,30.459 -0.098,31.237L1.753,31.994C1.971,31.462 2.288,30.987 2.683,30.599L1.282,29.172ZM-0.098,31.237C-0.416,32.016 -0.577,32.854 -0.571,33.698L1.429,33.685C1.425,33.102 1.536,32.526 1.753,31.994L-0.098,31.237ZM-0.571,33.692L-0.571,62.286L1.429,62.286L1.429,33.692L-0.571,33.692ZM-0.571,62.286C-0.571,63.897 0.033,65.453 1.124,66.609L2.578,65.236C1.848,64.463 1.429,63.402 1.429,62.286L-0.571,62.286ZM1.124,66.609C2.218,67.767 3.713,68.429 5.286,68.429L5.286,66.429C4.282,66.429 3.307,66.007 2.578,65.236L1.124,66.609ZM5.286,68.429L58.714,68.429L58.714,66.429L5.286,66.429L5.286,68.429ZM58.714,68.429C60.287,68.429 61.782,67.767 62.876,66.609L61.422,65.236C60.693,66.007 59.718,66.429 58.714,66.429L58.714,68.429ZM62.875,66.609C63.968,65.453 64.571,63.897 64.571,62.286L62.571,62.286C62.571,63.403 62.152,64.463 61.422,65.236L62.875,66.609ZM64.571,62.286L64.571,33.692L62.571,33.692L62.571,62.286L64.571,62.286Z" fill="#FFFFFF"/>
</svg>
