<svg width="70" height="60" viewBox="0 0 70 60" fill="none" xmlns="http://www.w3.org/2000/svg" xmlns:xlink="http://www.w3.org/1999/xlink">
<path d="M49.102,25.004C49.657,27.709 52.299,29.453 55.004,28.898C57.709,28.343 59.453,25.701 58.898,22.996L49.102,25.004ZM48.81,51.889C50.923,50.111 51.196,46.957 49.418,44.844C47.641,42.73 44.487,42.458 42.373,44.235L48.81,51.889ZM58.898,22.996C56.084,9.271 43.857,-1 29.253,-1L29.253,9C39.082,9 47.236,15.906 49.102,25.004L58.898,22.996ZM29.253,-1C12.592,-1 -1,12.384 -1,29L9,29C9,18.002 18.02,9 29.253,9L29.253,-1ZM-1,29C-1,45.616 12.592,59 29.253,59L29.253,49C18.02,49 9,39.998 9,29L-1,29ZM29.253,59C36.699,59 43.534,56.326 48.81,51.889L42.373,44.235C38.841,47.206 34.268,49 29.253,49L29.253,59Z" fill="#00057E"/>
<path d="M68.654,17.828C69.663,15.258 68.398,12.356 65.828,11.346C63.258,10.337 60.356,11.602 59.346,14.172L68.654,17.828ZM58.5,30L57.706,34.936C60.026,35.31 62.294,34.016 63.154,31.828L58.5,30ZM44.794,22.73C42.068,22.291 39.502,24.146 39.064,26.872C38.625,29.599 40.479,32.164 43.206,32.603L44.794,22.73ZM59.346,14.172L53.846,28.172L63.154,31.828L68.654,17.828L59.346,14.172ZM59.294,25.064L44.794,22.73L43.206,32.603L57.706,34.936L59.294,25.064Z" fill="#00057E"/>
</svg>
