<svg width="30" height="30" viewBox="0 0 30 30" fill="none" xmlns="http://www.w3.org/2000/svg" xmlns:xlink="http://www.w3.org/1999/xlink">
<path d="M8.882,27.516L8.714,26.53L8.704,26.532L8.882,27.516ZM1.072,28.929L0.135,28.577C0.009,28.914 0.073,29.293 0.304,29.569C0.534,29.845 0.895,29.977 1.249,29.913L1.072,28.929ZM9.061,28.5C9.605,28.407 9.972,27.891 9.879,27.346C9.786,26.802 9.269,26.436 8.725,26.528L9.061,28.5ZM4.34,23.074C4.539,22.558 4.282,21.98 3.767,21.781C3.251,21.583 2.673,21.839 2.474,22.355L4.34,23.074ZM8.442,28.414C10.423,29.384 12.649,29.929 15,29.929L15,27.929C12.961,27.929 11.034,27.457 9.321,26.618L8.442,28.414ZM15,29.929C23.245,29.929 29.929,23.245 29.929,15L27.929,15C27.929,22.14 22.141,27.929 15,27.929L15,29.929ZM29.929,15C29.929,6.755 23.245,0.071 15,0.071L15,2.071C22.141,2.071 27.929,7.86 27.929,15L29.929,15ZM15,0.071C6.755,0.071 0.072,6.755 0.072,15L2.072,15C2.072,7.86 7.86,2.071 15,2.071L15,0.071ZM0.072,15C0.072,18.059 0.993,20.906 2.573,23.275L4.237,22.165C2.869,20.115 2.072,17.652 2.072,15L0.072,15ZM8.704,26.532L0.894,27.945L1.249,29.913L9.06,28.5L8.704,26.532ZM2.008,29.28L4.341,23.072L2.469,22.368L0.135,28.577L2.008,29.28ZM9.05,28.502L9.061,28.5L8.725,26.528L8.714,26.53L9.05,28.502ZM4.338,23.079L4.34,23.074L2.474,22.355L2.472,22.361L4.338,23.079Z" fill="#FFFFFF"/>
</svg>
