<svg width="160" height="160" viewBox="0 0 160 160" fill="none" xmlns="http://www.w3.org/2000/svg" xmlns:xlink="http://www.w3.org/1999/xlink">
<path d="M159.815,80C159.815,124.183 123.998,160 79.815,160C35.632,160 -0.185,124.183 -0.185,80C-0.185,35.817 35.632,0 79.815,0C123.998,0 159.815,35.817 159.815,80Z" fill="#00057E"/>
<path d="M71.607,71.636L88.389,71.636L88.389,69.636L71.607,69.636L71.607,71.636ZM88.389,71.636C90.466,71.636 92.246,73.436 92.246,75.779L94.246,75.779C94.246,72.441 91.676,69.636 88.389,69.636L88.389,71.636ZM92.246,75.779L92.246,88.41L94.246,88.41L94.246,75.779L92.246,75.779ZM92.246,88.41C92.246,90.753 90.466,92.553 88.389,92.553L88.389,94.553C91.676,94.553 94.246,91.748 94.246,88.41L92.246,88.41ZM88.389,92.553L71.607,92.553L71.607,94.553L88.389,94.553L88.389,92.553ZM71.607,92.553C69.53,92.553 67.75,90.753 67.75,88.41L65.75,88.41C65.75,91.748 68.319,94.553 71.607,94.553L71.607,92.553ZM67.75,88.41L67.75,75.779L65.75,75.779L65.75,88.41L67.75,88.41ZM67.75,75.779C67.75,73.436 69.53,71.636 71.607,71.636L71.607,69.636C68.319,69.636 65.75,72.441 65.75,75.779L67.75,75.779Z" fill="#FFFFFF"/>
<path d="M72.909,70.638C72.909,71.19 73.356,71.638 73.909,71.638C74.461,71.638 74.909,71.19 74.909,70.638L72.909,70.638ZM85.1,70.638C85.1,71.19 85.548,71.638 86.1,71.638C86.652,71.638 87.1,71.19 87.1,70.638L85.1,70.638ZM74.909,70.638L74.909,67.694L72.909,67.694L72.909,70.638L74.909,70.638ZM74.909,67.694C74.909,65.351 76.689,63.551 78.766,63.551L78.766,61.551C75.478,61.551 72.909,64.356 72.909,67.694L74.909,67.694ZM78.766,63.551L81.243,63.551L81.243,61.551L78.766,61.551L78.766,63.551ZM81.243,63.551C83.32,63.551 85.1,65.351 85.1,67.694L87.1,67.694C87.1,64.356 84.531,61.551 81.243,61.551L81.243,63.551ZM85.1,67.694L85.1,70.638L87.1,70.638L87.1,67.694L85.1,67.694Z" fill="#FFFFFF"/>
<path d="M111.572,73.691L110.572,73.684L110.572,73.691L111.572,73.691ZM110.017,69.885L110.718,69.172L110.716,69.17L110.017,69.885ZM80,40.571L80.699,39.856C80.31,39.476 79.69,39.476 79.302,39.856L80,40.571ZM49.983,69.885L49.284,69.17L49.282,69.172L49.983,69.885ZM48.429,73.691L49.429,73.691L49.429,73.685L48.429,73.691ZM110.149,105.922L109.422,105.235L109.422,105.235L110.149,105.922ZM112.572,73.698C112.577,72.853 112.416,72.015 112.099,71.237L110.247,71.993C110.465,72.525 110.576,73.102 110.572,73.684L112.572,73.698ZM112.099,71.237C111.781,70.459 111.312,69.755 110.718,69.172L109.317,70.599C109.712,70.987 110.03,71.461 110.247,71.993L112.099,71.237ZM110.716,69.17L80.699,39.856L79.302,41.287L109.319,70.601L110.716,69.17ZM79.302,39.856L49.284,69.17L50.682,70.601L80.699,41.287L79.302,39.856ZM49.282,69.172C48.689,69.755 48.22,70.459 47.902,71.237L49.753,71.993C49.971,71.461 50.289,70.987 50.684,70.599L49.282,69.172ZM47.902,71.237C47.584,72.015 47.423,72.853 47.429,73.698L49.429,73.685C49.425,73.102 49.536,72.525 49.753,71.993L47.902,71.237ZM47.429,73.691L47.429,102.285L49.429,102.285L49.429,73.691L47.429,73.691ZM47.429,102.285C47.429,103.897 48.033,105.453 49.124,106.609L50.578,105.235C49.848,104.462 49.429,103.402 49.429,102.285L47.429,102.285ZM49.124,106.609C50.218,107.766 51.713,108.428 53.286,108.428L53.286,106.428C52.282,106.428 51.307,106.006 50.578,105.235L49.124,106.609ZM53.286,108.428L106.715,108.428L106.715,106.428L53.286,106.428L53.286,108.428ZM106.715,108.428C108.287,108.428 109.783,107.766 110.876,106.609L109.422,105.235C108.694,106.006 107.718,106.428 106.715,106.428L106.715,108.428ZM110.876,106.609C111.968,105.453 112.572,103.897 112.572,102.285L110.572,102.285C110.572,103.402 110.152,104.462 109.422,105.235L110.876,106.609ZM112.572,102.285L112.572,73.691L110.572,73.691L110.572,102.285L112.572,102.285Z" fill="#FFFFFF"/>
</svg>
