<svg width="160" height="160" viewBox="0 0 160 160" fill="none" xmlns="http://www.w3.org/2000/svg" xmlns:xlink="http://www.w3.org/1999/xlink">
<path d="M159.814,80C159.814,124.183 123.997,160 79.814,160C35.632,160 -0.186,124.183 -0.186,80C-0.186,35.817 35.632,0 79.814,0C123.997,0 159.814,35.817 159.814,80Z" fill="#00057E"/>
<path d="M71.607,71.637L88.389,71.637L88.389,69.637L71.607,69.637L71.607,71.637ZM88.389,71.637C90.466,71.637 92.246,73.437 92.246,75.78L94.246,75.78C94.246,72.442 91.676,69.637 88.389,69.637L88.389,71.637ZM92.246,75.78L92.246,88.41L94.246,88.41L94.246,75.78L92.246,75.78ZM92.246,88.41C92.246,90.753 90.466,92.553 88.389,92.553L88.389,94.553C91.676,94.553 94.246,91.748 94.246,88.41L92.246,88.41ZM88.389,92.553L71.607,92.553L71.607,94.553L88.389,94.553L88.389,92.553ZM71.607,92.553C69.53,92.553 67.75,90.753 67.75,88.41L65.75,88.41C65.75,91.748 68.319,94.553 71.607,94.553L71.607,92.553ZM67.75,88.41L67.75,75.78L65.75,75.78L65.75,88.41L67.75,88.41ZM67.75,75.78C67.75,73.437 69.53,71.637 71.607,71.637L71.607,69.637C68.319,69.637 65.75,72.442 65.75,75.78L67.75,75.78Z" fill="#FFFFFF"/>
<path d="M72.908,70.638C72.908,71.191 73.356,71.638 73.908,71.638C74.46,71.638 74.908,71.191 74.908,70.638L72.908,70.638ZM85.1,70.638C85.1,71.191 85.547,71.638 86.1,71.638C86.652,71.638 87.1,71.191 87.1,70.638L85.1,70.638ZM74.908,70.638L74.908,67.695L72.908,67.695L72.908,70.638L74.908,70.638ZM74.908,67.695C74.908,65.352 76.688,63.552 78.765,63.552L78.765,61.552C75.477,61.552 72.908,64.357 72.908,67.695L74.908,67.695ZM78.765,63.552L81.242,63.552L81.242,61.552L78.765,61.552L78.765,63.552ZM81.242,63.552C83.32,63.552 85.1,65.352 85.1,67.695L87.1,67.695C87.1,64.357 84.53,61.552 81.242,61.552L81.242,63.552ZM85.1,67.695L85.1,70.638L87.1,70.638L87.1,67.695L85.1,67.695Z" fill="#FFFFFF"/>
<path d="M111.572,73.692L110.572,73.685L110.572,73.692L111.572,73.692ZM110.017,69.886L110.718,69.172L110.716,69.17L110.017,69.886ZM80,40.572L80.699,39.856C80.31,39.477 79.69,39.477 79.302,39.856L80,40.572ZM49.983,69.886L49.284,69.17L49.282,69.172L49.983,69.886ZM48.429,73.692L49.429,73.692L49.429,73.685L48.429,73.692ZM110.149,105.922L109.422,105.236L109.422,105.236L110.149,105.922ZM112.572,73.698C112.577,72.854 112.416,72.016 112.099,71.237L110.247,71.994C110.465,72.526 110.576,73.102 110.572,73.685L112.572,73.698ZM112.099,71.237C111.781,70.459 111.312,69.755 110.718,69.172L109.317,70.6C109.712,70.987 110.03,71.462 110.247,71.994L112.099,71.237ZM110.716,69.17L80.699,39.856L79.302,41.287L109.319,70.601L110.716,69.17ZM79.302,39.856L49.284,69.17L50.682,70.601L80.699,41.287L79.302,39.856ZM49.282,69.172C48.689,69.755 48.22,70.459 47.902,71.237L49.753,71.994C49.971,71.462 50.289,70.987 50.684,70.599L49.282,69.172ZM47.902,71.237C47.584,72.016 47.423,72.854 47.429,73.698L49.429,73.685C49.425,73.102 49.536,72.526 49.753,71.994L47.902,71.237ZM47.429,73.692L47.429,102.286L49.429,102.286L49.429,73.692L47.429,73.692ZM47.429,102.286C47.429,103.897 48.033,105.453 49.124,106.609L50.578,105.236C49.848,104.463 49.429,103.402 49.429,102.286L47.429,102.286ZM49.124,106.609C50.218,107.767 51.713,108.429 53.286,108.429L53.286,106.429C52.282,106.429 51.307,106.007 50.578,105.236L49.124,106.609ZM53.286,108.429L106.715,108.429L106.715,106.429L53.286,106.429L53.286,108.429ZM106.715,108.429C108.287,108.429 109.783,107.767 110.876,106.609L109.422,105.236C108.694,106.007 107.718,106.429 106.715,106.429L106.715,108.429ZM110.876,106.609C111.968,105.453 112.572,103.897 112.572,102.286L110.572,102.286C110.572,103.403 110.152,104.463 109.422,105.236L110.876,106.609ZM112.572,102.286L112.572,73.692L110.572,73.692L110.572,102.286L112.572,102.286Z" fill="#FFFFFF"/>
</svg>
