<svg width="168" height="148" viewBox="0 0 168 148" fill="none" xmlns="http://www.w3.org/2000/svg" xmlns:xlink="http://www.w3.org/1999/xlink">
<path d="M68.579,116.291L71.853,112.512C70.381,111.237 68.302,110.932 66.526,111.732L68.579,116.291ZM95.026,139.21L98.354,135.478C98.336,135.463 98.318,135.447 98.3,135.431L95.026,139.21ZM107.764,142.378L106.771,137.478C106.753,137.481 106.735,137.485 106.717,137.489L107.764,142.378ZM113.852,139.589L110.739,135.676L110.739,135.677L113.852,139.589ZM117.591,134.563L112.922,132.773L112.915,132.791L117.591,134.563ZM161.022,21.236L156.424,19.271C156.399,19.329 156.375,19.387 156.353,19.446L161.022,21.236ZM161.561,14.594L156.711,15.81L156.711,15.81L161.561,14.594ZM157.894,8.75L154.61,12.521L154.61,12.521L157.894,8.75ZM151.182,5.558L152.116,0.645L152.115,0.645L151.182,5.558ZM143.553,6.027L144.948,10.828C144.996,10.814 145.045,10.799 145.093,10.784L143.553,6.027ZM13.379,43.838L11.985,39.036C11.975,39.039 11.965,39.042 11.954,39.045L13.379,43.838ZM4.402,52.921L9.268,54.071C9.278,54.028 9.288,53.984 9.297,53.94L4.402,52.921ZM4.691,58.601L-0.036,60.23L-0.036,60.23L4.691,58.601ZM8.041,63.482L11.325,59.711L11.323,59.71L8.041,63.482ZM41.282,92.421L46.28,92.57C46.325,91.073 45.695,89.634 44.565,88.65L41.282,92.421ZM40.19,129.071L35.193,128.922C35.141,130.644 35.981,132.272 37.414,133.229C38.847,134.186 40.672,134.338 42.243,133.63L40.19,129.071ZM65.304,120.07L91.751,142.989L98.3,135.431L71.853,112.512L65.304,120.07ZM91.698,142.941C93.961,144.96 96.73,146.379 99.704,147.119L102.119,137.415C100.624,137.043 99.335,136.354 98.354,135.478L91.698,142.941ZM99.704,147.119C102.679,147.86 105.812,147.909 108.811,147.267L106.717,137.489C105.203,137.813 103.612,137.787 102.119,137.415L99.704,147.119ZM108.757,147.279C111.758,146.671 114.591,145.391 116.965,143.502L110.739,135.677C109.671,136.526 108.311,137.166 106.771,137.478L108.757,147.279ZM116.964,143.502C119.34,141.613 121.195,139.16 122.266,136.334L112.915,132.791C112.525,133.819 111.806,134.828 110.739,135.676L116.964,143.502ZM122.26,136.352L165.691,23.025L156.353,19.446L112.922,132.773L122.26,136.352ZM165.62,23.2C166.95,20.085 167.235,16.663 166.411,13.378L156.711,15.81C156.997,16.95 156.907,18.139 156.424,19.271L165.62,23.2ZM166.411,13.378C165.59,10.103 163.732,7.204 161.177,4.98L154.61,12.521C155.735,13.5 156.422,14.657 156.711,15.81L166.411,13.378ZM161.177,4.98C158.628,2.76 155.472,1.283 152.116,0.645L150.249,10.47C151.975,10.798 153.48,11.537 154.61,12.521L161.177,4.98ZM152.115,0.645C148.757,0.008 145.258,0.22 142.013,1.27L145.093,10.784C146.725,10.256 148.522,10.142 150.25,10.47L152.115,0.645ZM142.158,1.225L11.985,39.036L14.774,48.639L144.948,10.828L142.158,1.225ZM11.954,39.045C8.911,39.95 6.123,41.568 3.916,43.802L11.028,50.831C11.977,49.871 13.268,49.087 14.805,48.63L11.954,39.045ZM3.916,43.802C1.703,46.04 0.148,48.827 -0.493,51.901L9.297,53.94C9.52,52.869 10.084,51.786 11.028,50.831L3.916,43.802ZM-0.464,51.77C-1.129,54.583 -0.978,57.498 -0.036,60.23L9.418,56.972C9.089,56.017 9.041,55.029 9.268,54.071L-0.464,51.77ZM-0.036,60.23C0.903,62.955 2.578,65.357 4.76,67.255L11.323,59.71C10.377,58.887 9.749,57.934 9.418,56.972L-0.036,60.23ZM4.758,67.253L37.999,96.193L44.565,88.65L11.325,59.711L4.758,67.253ZM36.285,92.273L35.193,128.922L45.188,129.22L46.28,92.57L36.285,92.273ZM42.243,133.63L70.631,120.85L66.526,111.732L38.138,124.512L42.243,133.63Z" fill="#00057E"/>
<path d="M160.077,12.396C162.312,10.774 162.809,7.648 161.188,5.413C159.566,3.178 156.439,2.681 154.204,4.303L160.077,12.396ZM38.346,88.374C36.111,89.996 35.614,93.122 37.236,95.357C38.858,97.592 41.984,98.089 44.219,96.467L38.346,88.374ZM154.204,4.303L38.346,88.374L44.219,96.467L160.077,12.396L154.204,4.303Z" fill="#00057E"/>
</svg>
