<svg width="40" height="40" viewBox="0 0 40 40" fill="none" xmlns="http://www.w3.org/2000/svg" xmlns:xlink="http://www.w3.org/1999/xlink">
<path d="M23.905,40C25.279,40 26.253,38.816 26.959,36.983L39.465,4.315C39.809,3.437 40,2.654 40,2.005C40,0.764 39.236,0 37.995,0C37.346,0 36.563,0.191 35.685,0.535L2.845,13.117C1.241,13.728 0,14.702 0,16.095C0,17.852 1.337,18.444 3.169,18.998L13.48,22.129C14.702,22.511 15.389,22.473 16.21,21.709L37.155,2.138C37.403,1.909 37.69,1.947 37.881,2.119C38.072,2.31 38.091,2.597 37.862,2.845L18.368,23.866C17.623,24.649 17.566,25.298 17.928,26.578L20.964,36.659C21.537,38.587 22.129,40 23.905,40Z" fill="#007AFF"/>
</svg>
