<svg width="42" height="42" viewBox="0 0 42 42" fill="none" xmlns="http://www.w3.org/2000/svg" xmlns:xlink="http://www.w3.org/1999/xlink">
<path d="M24.189,40.284C25.563,40.284 26.537,39.1 27.244,37.267L39.75,4.599C40.093,3.721 40.284,2.938 40.284,2.289C40.284,1.048 39.52,0.284 38.279,0.284C37.63,0.284 36.847,0.475 35.969,0.819L3.129,13.401C1.525,14.012 0.284,14.986 0.284,16.38C0.284,18.136 1.621,18.728 3.454,19.282L13.764,22.413C14.986,22.795 15.673,22.757 16.494,21.993L37.439,2.423C37.688,2.194 37.974,2.232 38.165,2.404C38.356,2.595 38.375,2.881 38.146,3.129L18.652,24.151C17.907,24.933 17.85,25.583 18.213,26.862L21.248,36.943C21.821,38.871 22.413,40.284 24.189,40.284Z" transform="rotate(90 20.284 20.284)" fill="#007AFF"/>
</svg>
