<svg width="38" height="36" viewBox="0 0 38 36" fill="none" xmlns="http://www.w3.org/2000/svg" xmlns:xlink="http://www.w3.org/1999/xlink">
<path d="M21.757,1.414C24.101,-0.929 27.899,-0.929 30.243,1.414L34.586,5.757C36.929,8.101 36.929,11.9 34.586,14.243L16.828,32L36,32C37.105,32 38,32.895 38,34C38,35.105 37.105,36 36,36L2,36C0.895,36 0,35.105 0,34L0,24C0,23.47 0.211,22.961 0.586,22.586L21.757,1.414ZM11.172,32L31.757,11.414C32.538,10.633 32.538,9.367 31.757,8.586L27.414,4.243C26.633,3.462 25.367,3.462 24.586,4.243L4,24.828L4,32L11.172,32Z" clip-rule="evenodd" fill-rule="evenodd" fill="#000000"/>
</svg>
