<svg width="14" height="22" viewBox="0 0 14 22" fill="none" xmlns="http://www.w3.org/2000/svg" xmlns:xlink="http://www.w3.org/1999/xlink">
<path d="M11.714,19.286L11.007,19.993C11.293,20.279 11.723,20.364 12.097,20.21C12.471,20.055 12.714,19.69 12.714,19.286L11.714,19.286ZM6,13.571L6.707,12.864C6.317,12.474 5.683,12.474 5.293,12.864L6,13.571ZM0.286,19.286L-0.714,19.286C-0.714,19.69 -0.471,20.055 -0.097,20.21C0.277,20.364 0.707,20.279 0.993,19.993L0.286,19.286ZM0.704,1.133L-0.003,0.426L-0.003,0.426L0.704,1.133ZM11.296,1.133L12.003,0.426L12.003,0.426L11.296,1.133ZM12.421,18.579L6.707,12.864L5.293,14.279L11.007,19.993L12.421,18.579ZM5.293,12.864L-0.421,18.579L0.993,19.993L6.707,14.279L5.293,12.864ZM1.286,19.286L1.286,2.143L-0.714,2.143L-0.714,19.286L1.286,19.286ZM1.286,2.143C1.286,2.029 1.331,1.92 1.411,1.84L-0.003,0.426C-0.458,0.881 -0.714,1.499 -0.714,2.143L1.286,2.143ZM1.411,1.84C1.492,1.759 1.601,1.714 1.714,1.714L1.714,-0.286C1.07,-0.286 0.452,-0.03 -0.003,0.426L1.411,1.84ZM1.714,1.714L10.286,1.714L10.286,-0.286L1.714,-0.286L1.714,1.714ZM10.286,1.714C10.399,1.714 10.508,1.759 10.589,1.84L12.003,0.426C11.548,-0.03 10.93,-0.286 10.286,-0.286L10.286,1.714ZM10.589,1.84C10.669,1.92 10.714,2.029 10.714,2.143L12.714,2.143C12.714,1.499 12.458,0.881 12.003,0.426L10.589,1.84ZM10.714,2.143L10.714,19.286L12.714,19.286L12.714,2.143L10.714,2.143Z" fill="#767676"/>
</svg>
